<svg width="470" height="459" viewBox="0 0 470 459" fill="none" xmlns="http://www.w3.org/2000/svg">
<path d="M250 364H375V239H470V391C470 428.555 439.555 459 402 459H250V364Z" fill="#5B21B6"/>
<path d="M220 95L95 95L95 220L0 220L1.32883e-05 68C1.65715e-05 30.4446 30.4447 -1.65715e-05 68 -1.32883e-05L220 0L220 95Z" fill="#5B21B6"/>
<path d="M95 239L220 239L220 364L220 459L68 459C30.4446 459 2.26043e-06 428.555 1.81258e-06 391L0 239L95 239Z" fill="#A78BFA"/>
<path d="M375 220L250 220L250 95L250 -1.52588e-05L402 -1.34462e-05C439.555 -1.29984e-05 470 30.4446 470 68L470 220L375 220Z" fill="#A78BFA"/>
<rect x="250" y="239" width="89" height="89" fill="#5B21B6"/>
<rect x="131" y="131" width="89" height="89" fill="#8B5CF6"/>
</svg>
